 <svg
                  width="6"
                  height="27"
                  viewBox="0 0 6 27"
                  fill="none"
                  xmlns="http://www.w3.org/2000/svg"
                >
                  <path
                    d="M3 2.5625L3 2.57813M3 13.5L3 13.5156M3 24.4375L3 24.4531M3 4.125C1.89543 4.125 1 3.42544 1 2.5625C1 1.69955 1.89543 1 3 1C4.10457 1 5 1.69956 5 2.5625C5 3.42544 4.10457 4.125 3 4.125ZM3 15.0625C1.89543 15.0625 0.999999 14.3629 0.999999 13.5C0.999999 12.6371 1.89543 11.9375 3 11.9375C4.10457 11.9375 5 12.6371 5 13.5C5 14.3629 4.10457 15.0625 3 15.0625ZM3 26C1.89543 26 0.999999 25.3004 0.999999 24.4375C0.999999 23.5746 1.89543 22.875 3 22.875C4.10457 22.875 5 23.5746 5 24.4375C5 25.3004 4.10457 26 3 26Z"
                    stroke="#111827"
                    stroke-width="2"
                    stroke-linecap="round"
                    stroke-linejoin="round"
                  />
                </svg>